<mxfile host="app.diagrams.net" agent="Mozilla/5.0 (X11; Linux x86_64) AppleWebKit/537.36 (KHTML, like Gecko) Chrome/133.0.0.0 Safari/537.36" version="26.0.14">
  <diagram name="Page-1" id="pPeo_0EB0FhNUEU4GXeF">
    <mxGraphModel dx="1195" dy="656" grid="1" gridSize="10" guides="1" tooltips="1" connect="1" arrows="1" fold="1" page="1" pageScale="1" pageWidth="1500" pageHeight="800" math="0" shadow="0">
      <root>
        <mxCell id="0" />
        <mxCell id="1" parent="0" />
        <mxCell id="ByM-SSw_w5IGyE3lBcbC-1" value="" style="ellipse;whiteSpace=wrap;html=1;aspect=fixed;fillColor=#b0e3e6;strokeColor=#0e8088;" vertex="1" parent="1">
          <mxGeometry x="500" y="220" width="50" height="50" as="geometry" />
        </mxCell>
        <mxCell id="ByM-SSw_w5IGyE3lBcbC-2" value="" style="rounded=0;whiteSpace=wrap;html=1;fillColor=#fff2cc;strokeColor=#d6b656;" vertex="1" parent="1">
          <mxGeometry x="380" y="390" width="45" height="40" as="geometry" />
        </mxCell>
        <mxCell id="ByM-SSw_w5IGyE3lBcbC-3" value="" style="rounded=0;whiteSpace=wrap;html=1;fillColor=#ffe6cc;strokeColor=#d79b00;" vertex="1" parent="1">
          <mxGeometry x="440" y="390" width="45" height="40" as="geometry" />
        </mxCell>
        <mxCell id="ByM-SSw_w5IGyE3lBcbC-5" value="" style="rounded=0;whiteSpace=wrap;html=1;fillColor=#f8cecc;strokeColor=#b85450;" vertex="1" parent="1">
          <mxGeometry x="550" y="390" width="45" height="40" as="geometry" />
        </mxCell>
        <mxCell id="ByM-SSw_w5IGyE3lBcbC-6" value="" style="rounded=0;whiteSpace=wrap;html=1;fillColor=#e1d5e7;strokeColor=#9673a6;" vertex="1" parent="1">
          <mxGeometry x="610" y="390" width="45" height="40" as="geometry" />
        </mxCell>
        <mxCell id="ByM-SSw_w5IGyE3lBcbC-8" value="" style="endArrow=classic;html=1;rounded=0;entryX=0;entryY=1;entryDx=0;entryDy=0;exitX=0.5;exitY=0;exitDx=0;exitDy=0;" edge="1" parent="1" source="ByM-SSw_w5IGyE3lBcbC-2" target="ByM-SSw_w5IGyE3lBcbC-1">
          <mxGeometry width="50" height="50" relative="1" as="geometry">
            <mxPoint x="320" y="390" as="sourcePoint" />
            <mxPoint x="370" y="340" as="targetPoint" />
          </mxGeometry>
        </mxCell>
        <mxCell id="ByM-SSw_w5IGyE3lBcbC-12" value="" style="endArrow=classic;html=1;rounded=0;entryX=0;entryY=1;entryDx=0;entryDy=0;exitX=0.5;exitY=0;exitDx=0;exitDy=0;" edge="1" parent="1" source="ByM-SSw_w5IGyE3lBcbC-3" target="ByM-SSw_w5IGyE3lBcbC-1">
          <mxGeometry width="50" height="50" relative="1" as="geometry">
            <mxPoint x="400" y="390" as="sourcePoint" />
            <mxPoint x="450" y="340" as="targetPoint" />
          </mxGeometry>
        </mxCell>
        <mxCell id="ByM-SSw_w5IGyE3lBcbC-13" value="" style="endArrow=classic;html=1;rounded=0;entryX=1;entryY=1;entryDx=0;entryDy=0;" edge="1" parent="1" target="ByM-SSw_w5IGyE3lBcbC-1">
          <mxGeometry width="50" height="50" relative="1" as="geometry">
            <mxPoint x="570" y="390" as="sourcePoint" />
            <mxPoint x="620" y="340" as="targetPoint" />
          </mxGeometry>
        </mxCell>
        <mxCell id="ByM-SSw_w5IGyE3lBcbC-14" value="" style="endArrow=classic;html=1;rounded=0;entryX=1;entryY=1;entryDx=0;entryDy=0;exitX=0.5;exitY=0;exitDx=0;exitDy=0;" edge="1" parent="1" source="ByM-SSw_w5IGyE3lBcbC-6" target="ByM-SSw_w5IGyE3lBcbC-1">
          <mxGeometry width="50" height="50" relative="1" as="geometry">
            <mxPoint x="659.5" y="390" as="sourcePoint" />
            <mxPoint x="632.5" y="263" as="targetPoint" />
          </mxGeometry>
        </mxCell>
        <mxCell id="ByM-SSw_w5IGyE3lBcbC-16" value="" style="triangle;whiteSpace=wrap;html=1;rotation=-90;fillColor=#f5f5f5;gradientColor=#b3b3b3;strokeColor=#666666;" vertex="1" parent="1">
          <mxGeometry x="430" y="140" width="30" height="40" as="geometry" />
        </mxCell>
        <mxCell id="ByM-SSw_w5IGyE3lBcbC-19" value="" style="triangle;whiteSpace=wrap;html=1;rotation=-90;fillColor=#dae8fc;gradientColor=#7ea6e0;strokeColor=#6c8ebf;" vertex="1" parent="1">
          <mxGeometry x="510" y="140" width="30" height="40" as="geometry" />
        </mxCell>
        <mxCell id="ByM-SSw_w5IGyE3lBcbC-20" value="" style="triangle;whiteSpace=wrap;html=1;rotation=-90;fillColor=#d5e8d4;gradientColor=#97d077;strokeColor=#82b366;" vertex="1" parent="1">
          <mxGeometry x="590" y="140" width="30" height="40" as="geometry" />
        </mxCell>
        <mxCell id="ByM-SSw_w5IGyE3lBcbC-21" value="" style="endArrow=classic;html=1;rounded=0;entryX=0;entryY=0.5;entryDx=0;entryDy=0;" edge="1" parent="1" source="ByM-SSw_w5IGyE3lBcbC-1" target="ByM-SSw_w5IGyE3lBcbC-20">
          <mxGeometry width="50" height="50" relative="1" as="geometry">
            <mxPoint x="540" y="230" as="sourcePoint" />
            <mxPoint x="590" y="180" as="targetPoint" />
          </mxGeometry>
        </mxCell>
        <mxCell id="ByM-SSw_w5IGyE3lBcbC-22" value="" style="endArrow=classic;html=1;rounded=0;entryX=0;entryY=0.5;entryDx=0;entryDy=0;exitX=0.5;exitY=0;exitDx=0;exitDy=0;" edge="1" parent="1" source="ByM-SSw_w5IGyE3lBcbC-1" target="ByM-SSw_w5IGyE3lBcbC-19">
          <mxGeometry width="50" height="50" relative="1" as="geometry">
            <mxPoint x="520" y="220" as="sourcePoint" />
            <mxPoint x="581" y="166" as="targetPoint" />
          </mxGeometry>
        </mxCell>
        <mxCell id="ByM-SSw_w5IGyE3lBcbC-23" value="" style="endArrow=classic;html=1;rounded=0;entryX=0;entryY=0.5;entryDx=0;entryDy=0;exitX=0;exitY=0;exitDx=0;exitDy=0;" edge="1" parent="1" source="ByM-SSw_w5IGyE3lBcbC-1" target="ByM-SSw_w5IGyE3lBcbC-16">
          <mxGeometry width="50" height="50" relative="1" as="geometry">
            <mxPoint x="500" y="225" as="sourcePoint" />
            <mxPoint x="500" y="180" as="targetPoint" />
          </mxGeometry>
        </mxCell>
        <mxCell id="ByM-SSw_w5IGyE3lBcbC-24" value="" style="ellipse;whiteSpace=wrap;html=1;aspect=fixed;fillColor=#b0e3e6;strokeColor=#0e8088;" vertex="1" parent="1">
          <mxGeometry x="870" y="220" width="50" height="50" as="geometry" />
        </mxCell>
        <mxCell id="ByM-SSw_w5IGyE3lBcbC-25" value="" style="rounded=0;whiteSpace=wrap;html=1;fillColor=#fff2cc;strokeColor=#d6b656;" vertex="1" parent="1">
          <mxGeometry x="750" y="390" width="45" height="40" as="geometry" />
        </mxCell>
        <mxCell id="ByM-SSw_w5IGyE3lBcbC-26" value="" style="rounded=0;whiteSpace=wrap;html=1;fillColor=#ffe6cc;strokeColor=#d79b00;" vertex="1" parent="1">
          <mxGeometry x="810" y="390" width="45" height="40" as="geometry" />
        </mxCell>
        <mxCell id="ByM-SSw_w5IGyE3lBcbC-27" value="" style="rounded=0;whiteSpace=wrap;html=1;fillColor=#f8cecc;strokeColor=#b85450;" vertex="1" parent="1">
          <mxGeometry x="920" y="390" width="45" height="40" as="geometry" />
        </mxCell>
        <mxCell id="ByM-SSw_w5IGyE3lBcbC-28" value="" style="rounded=0;whiteSpace=wrap;html=1;fillColor=#e1d5e7;strokeColor=#9673a6;" vertex="1" parent="1">
          <mxGeometry x="980" y="390" width="45" height="40" as="geometry" />
        </mxCell>
        <mxCell id="ByM-SSw_w5IGyE3lBcbC-29" value="" style="endArrow=classic;html=1;rounded=0;entryX=0;entryY=1;entryDx=0;entryDy=0;exitX=0.5;exitY=0;exitDx=0;exitDy=0;" edge="1" parent="1" source="ByM-SSw_w5IGyE3lBcbC-25" target="ByM-SSw_w5IGyE3lBcbC-24">
          <mxGeometry width="50" height="50" relative="1" as="geometry">
            <mxPoint x="690" y="390" as="sourcePoint" />
            <mxPoint x="740" y="340" as="targetPoint" />
          </mxGeometry>
        </mxCell>
        <mxCell id="ByM-SSw_w5IGyE3lBcbC-30" value="" style="endArrow=classic;html=1;rounded=0;entryX=0;entryY=1;entryDx=0;entryDy=0;exitX=0.5;exitY=0;exitDx=0;exitDy=0;" edge="1" parent="1" source="ByM-SSw_w5IGyE3lBcbC-26" target="ByM-SSw_w5IGyE3lBcbC-24">
          <mxGeometry width="50" height="50" relative="1" as="geometry">
            <mxPoint x="770" y="390" as="sourcePoint" />
            <mxPoint x="820" y="340" as="targetPoint" />
          </mxGeometry>
        </mxCell>
        <mxCell id="ByM-SSw_w5IGyE3lBcbC-31" value="" style="endArrow=classic;html=1;rounded=0;entryX=1;entryY=1;entryDx=0;entryDy=0;" edge="1" parent="1" target="ByM-SSw_w5IGyE3lBcbC-24">
          <mxGeometry width="50" height="50" relative="1" as="geometry">
            <mxPoint x="940" y="390" as="sourcePoint" />
            <mxPoint x="990" y="340" as="targetPoint" />
          </mxGeometry>
        </mxCell>
        <mxCell id="ByM-SSw_w5IGyE3lBcbC-32" value="" style="endArrow=classic;html=1;rounded=0;entryX=1;entryY=1;entryDx=0;entryDy=0;exitX=0.5;exitY=0;exitDx=0;exitDy=0;" edge="1" parent="1" source="ByM-SSw_w5IGyE3lBcbC-28" target="ByM-SSw_w5IGyE3lBcbC-24">
          <mxGeometry width="50" height="50" relative="1" as="geometry">
            <mxPoint x="1029.5" y="390" as="sourcePoint" />
            <mxPoint x="1002.5" y="263" as="targetPoint" />
          </mxGeometry>
        </mxCell>
        <mxCell id="ByM-SSw_w5IGyE3lBcbC-33" value="" style="triangle;whiteSpace=wrap;html=1;rotation=-90;fillColor=#f5f5f5;gradientColor=#b3b3b3;strokeColor=#666666;" vertex="1" parent="1">
          <mxGeometry x="800" y="140" width="30" height="40" as="geometry" />
        </mxCell>
        <mxCell id="ByM-SSw_w5IGyE3lBcbC-34" value="" style="triangle;whiteSpace=wrap;html=1;rotation=-90;fillColor=#dae8fc;gradientColor=#7ea6e0;strokeColor=#6c8ebf;" vertex="1" parent="1">
          <mxGeometry x="880" y="140" width="30" height="40" as="geometry" />
        </mxCell>
        <mxCell id="ByM-SSw_w5IGyE3lBcbC-35" value="" style="triangle;whiteSpace=wrap;html=1;rotation=-90;fillColor=#d5e8d4;gradientColor=#97d077;strokeColor=#82b366;" vertex="1" parent="1">
          <mxGeometry x="960" y="140" width="30" height="40" as="geometry" />
        </mxCell>
        <mxCell id="ByM-SSw_w5IGyE3lBcbC-36" value="" style="endArrow=classic;html=1;rounded=0;entryX=0;entryY=0.5;entryDx=0;entryDy=0;" edge="1" parent="1" source="ByM-SSw_w5IGyE3lBcbC-24" target="ByM-SSw_w5IGyE3lBcbC-35">
          <mxGeometry width="50" height="50" relative="1" as="geometry">
            <mxPoint x="910" y="230" as="sourcePoint" />
            <mxPoint x="960" y="180" as="targetPoint" />
          </mxGeometry>
        </mxCell>
        <mxCell id="ByM-SSw_w5IGyE3lBcbC-37" value="" style="endArrow=classic;html=1;rounded=0;entryX=0;entryY=0.5;entryDx=0;entryDy=0;exitX=0.5;exitY=0;exitDx=0;exitDy=0;" edge="1" parent="1" source="ByM-SSw_w5IGyE3lBcbC-24" target="ByM-SSw_w5IGyE3lBcbC-34">
          <mxGeometry width="50" height="50" relative="1" as="geometry">
            <mxPoint x="890" y="220" as="sourcePoint" />
            <mxPoint x="951" y="166" as="targetPoint" />
          </mxGeometry>
        </mxCell>
        <mxCell id="ByM-SSw_w5IGyE3lBcbC-38" value="" style="endArrow=classic;html=1;rounded=0;entryX=0;entryY=0.5;entryDx=0;entryDy=0;exitX=0;exitY=0;exitDx=0;exitDy=0;" edge="1" parent="1" source="ByM-SSw_w5IGyE3lBcbC-24" target="ByM-SSw_w5IGyE3lBcbC-33">
          <mxGeometry width="50" height="50" relative="1" as="geometry">
            <mxPoint x="870" y="225" as="sourcePoint" />
            <mxPoint x="870" y="180" as="targetPoint" />
          </mxGeometry>
        </mxCell>
        <mxCell id="ByM-SSw_w5IGyE3lBcbC-39" value="" style="ellipse;whiteSpace=wrap;html=1;aspect=fixed;fillColor=#d5e8d4;strokeColor=#82b366;" vertex="1" parent="1">
          <mxGeometry x="1020" y="220" width="50" height="50" as="geometry" />
        </mxCell>
        <mxCell id="ByM-SSw_w5IGyE3lBcbC-40" value="child (input) nodes" style="text;html=1;align=center;verticalAlign=middle;whiteSpace=wrap;rounded=0;" vertex="1" parent="1">
          <mxGeometry x="250" y="395" width="60" height="30" as="geometry" />
        </mxCell>
        <mxCell id="ByM-SSw_w5IGyE3lBcbC-41" value="parent (output)&lt;div&gt;nodes&lt;/div&gt;" style="text;html=1;align=center;verticalAlign=middle;whiteSpace=wrap;rounded=0;" vertex="1" parent="1">
          <mxGeometry x="250" y="145" width="60" height="30" as="geometry" />
        </mxCell>
        <mxCell id="ByM-SSw_w5IGyE3lBcbC-42" value="target operator node" style="text;html=1;align=center;verticalAlign=middle;whiteSpace=wrap;rounded=0;" vertex="1" parent="1">
          <mxGeometry x="250" y="230" width="60" height="30" as="geometry" />
        </mxCell>
        <mxCell id="ByM-SSw_w5IGyE3lBcbC-44" value="" style="endArrow=classic;html=1;rounded=0;entryX=0;entryY=1;entryDx=0;entryDy=0;" edge="1" parent="1" target="ByM-SSw_w5IGyE3lBcbC-39">
          <mxGeometry width="50" height="50" relative="1" as="geometry">
            <mxPoint x="940" y="390" as="sourcePoint" />
            <mxPoint x="990" y="340" as="targetPoint" />
          </mxGeometry>
        </mxCell>
        <mxCell id="ByM-SSw_w5IGyE3lBcbC-45" value="" style="endArrow=classic;html=1;rounded=0;entryX=0;entryY=1;entryDx=0;entryDy=0;" edge="1" parent="1" target="ByM-SSw_w5IGyE3lBcbC-39">
          <mxGeometry width="50" height="50" relative="1" as="geometry">
            <mxPoint x="1000" y="390" as="sourcePoint" />
            <mxPoint x="1050" y="340" as="targetPoint" />
          </mxGeometry>
        </mxCell>
        <mxCell id="ByM-SSw_w5IGyE3lBcbC-46" value="" style="endArrow=classic;html=1;rounded=0;exitX=0.5;exitY=0;exitDx=0;exitDy=0;entryX=1;entryY=1;entryDx=0;entryDy=0;" edge="1" parent="1" source="ByM-SSw_w5IGyE3lBcbC-26" target="ByM-SSw_w5IGyE3lBcbC-39">
          <mxGeometry width="50" height="50" relative="1" as="geometry">
            <mxPoint x="840" y="380" as="sourcePoint" />
            <mxPoint x="890" y="330" as="targetPoint" />
          </mxGeometry>
        </mxCell>
        <mxCell id="ByM-SSw_w5IGyE3lBcbC-47" value="" style="endArrow=classic;html=1;rounded=0;exitX=0.5;exitY=0;exitDx=0;exitDy=0;entryX=0.793;entryY=0.907;entryDx=0;entryDy=0;entryPerimeter=0;" edge="1" parent="1" source="ByM-SSw_w5IGyE3lBcbC-25" target="ByM-SSw_w5IGyE3lBcbC-39">
          <mxGeometry width="50" height="50" relative="1" as="geometry">
            <mxPoint x="790" y="380" as="sourcePoint" />
            <mxPoint x="1090" y="340" as="targetPoint" />
            <Array as="points">
              <mxPoint x="970" y="380" />
            </Array>
          </mxGeometry>
        </mxCell>
        <mxCell id="ByM-SSw_w5IGyE3lBcbC-48" value="" style="endArrow=classic;html=1;rounded=0;exitX=0;exitY=0;exitDx=0;exitDy=0;entryX=0;entryY=0.5;entryDx=0;entryDy=0;" edge="1" parent="1" source="ByM-SSw_w5IGyE3lBcbC-39" target="ByM-SSw_w5IGyE3lBcbC-33">
          <mxGeometry width="50" height="50" relative="1" as="geometry">
            <mxPoint x="1030" y="230" as="sourcePoint" />
            <mxPoint x="1080" y="180" as="targetPoint" />
          </mxGeometry>
        </mxCell>
        <mxCell id="ByM-SSw_w5IGyE3lBcbC-49" value="" style="endArrow=classic;html=1;rounded=0;exitX=0.5;exitY=0;exitDx=0;exitDy=0;entryX=0;entryY=0.5;entryDx=0;entryDy=0;" edge="1" parent="1" source="ByM-SSw_w5IGyE3lBcbC-39" target="ByM-SSw_w5IGyE3lBcbC-34">
          <mxGeometry width="50" height="50" relative="1" as="geometry">
            <mxPoint x="1040" y="230" as="sourcePoint" />
            <mxPoint x="1090" y="180" as="targetPoint" />
          </mxGeometry>
        </mxCell>
        <mxCell id="ByM-SSw_w5IGyE3lBcbC-50" value="" style="endArrow=classic;html=1;rounded=0;exitX=1;exitY=0;exitDx=0;exitDy=0;entryX=0;entryY=0.5;entryDx=0;entryDy=0;" edge="1" parent="1" source="ByM-SSw_w5IGyE3lBcbC-39" target="ByM-SSw_w5IGyE3lBcbC-35">
          <mxGeometry width="50" height="50" relative="1" as="geometry">
            <mxPoint x="1070" y="240" as="sourcePoint" />
            <mxPoint x="1120" y="190" as="targetPoint" />
          </mxGeometry>
        </mxCell>
        <mxCell id="ByM-SSw_w5IGyE3lBcbC-51" value="query hypertree before applying transformation" style="text;html=1;align=center;verticalAlign=middle;whiteSpace=wrap;rounded=0;" vertex="1" parent="1">
          <mxGeometry x="452.5" y="460" width="145" height="30" as="geometry" />
        </mxCell>
        <mxCell id="ByM-SSw_w5IGyE3lBcbC-52" value="query hypertree after applying generalized commutativity" style="text;html=1;align=center;verticalAlign=middle;whiteSpace=wrap;rounded=0;" vertex="1" parent="1">
          <mxGeometry x="830" y="460" width="167.5" height="30" as="geometry" />
        </mxCell>
      </root>
    </mxGraphModel>
  </diagram>
</mxfile>
